<?xml version="1.0" encoding="UTF-8"?>
<svg xmlns="http://www.w3.org/2000/svg"
     viewBox="0 0 1700 2400"
     font-family="'Apple SD Gothic Neo', 'Malgun Gothic', 'Noto Sans KR', sans-serif">

  <defs>
    <marker id="arrow" markerWidth="10" markerHeight="10" refX="9" refY="5" orient="auto">
      <path d="M0,0 L0,10 L9,5 z" fill="#555"/>
    </marker>
    <marker id="arrow-data" markerWidth="10" markerHeight="10" refX="9" refY="5" orient="auto">
      <path d="M0,0 L0,10 L9,5 z" fill="#1565C0"/>
    </marker>
    <marker id="arrow-ros2" markerWidth="10" markerHeight="10" refX="9" refY="5" orient="auto">
      <path d="M0,0 L0,10 L9,5 z" fill="#C62828"/>
    </marker>
    <marker id="arrow-dash" markerWidth="10" markerHeight="10" refX="9" refY="5" orient="auto">
      <path d="M0,0 L0,10 L9,5 z" fill="#888"/>
    </marker>
    <linearGradient id="title" x1="0%" y1="0%" x2="100%" y2="0%">
      <stop offset="0%" stop-color="#1565C0"/>
      <stop offset="100%" stop-color="#E65100"/>
    </linearGradient>
  </defs>

  <rect width="1700" height="2400" fill="#FAFAFA"/>

  <!-- ═══ TITLE ═══ -->
  <rect x="0" y="0" width="1700" height="100" fill="url(#title)"/>
  <text x="850" y="42" font-size="26" font-weight="bold" text-anchor="middle" fill="white">
    🛰️ 화성 광물 자율 탐사 시스템 — 풀 아키텍처 (인터페이스 포함)
  </text>
  <text x="850" y="72" font-size="14" text-anchor="middle" fill="#FFF59D">
    T1~T5 트랙 × 5개 인터페이스 (I1~I5) × TRN-based Localization
  </text>

  <!-- ═══ LEGEND ═══ -->
  <g transform="translate(1400, 110)">
    <rect width="280" height="260" fill="white" stroke="#BDBDBD" stroke-width="1" rx="6"/>
    <text x="140" y="22" font-size="13" font-weight="bold" text-anchor="middle">범례</text>

    <g transform="translate(15, 35)">
      <rect width="18" height="18" fill="#FFE0B2" stroke="#E65100" stroke-width="1.5"/>
      <text x="28" y="14" font-size="11">T1 Environment</text>
    </g>
    <g transform="translate(15, 60)">
      <rect width="18" height="18" fill="#C8E6C9" stroke="#2E7D32" stroke-width="1.5"/>
      <text x="28" y="14" font-size="11">T2 Perception + M0609</text>
    </g>
    <g transform="translate(15, 85)">
      <rect width="18" height="18" fill="#BBDEFB" stroke="#1976D2" stroke-width="1.5"/>
      <text x="28" y="14" font-size="11">T3 Driving</text>
    </g>
    <g transform="translate(15, 110)">
      <rect width="18" height="18" fill="#E1BEE7" stroke="#6A1B9A" stroke-width="1.5"/>
      <text x="28" y="14" font-size="11">T4 Integration + PM</text>
    </g>
    <g transform="translate(15, 135)">
      <rect width="18" height="18" fill="#FFCDD2" stroke="#C62828" stroke-width="1.5"/>
      <text x="28" y="14" font-size="11">T5 Localization + Infra</text>
    </g>
    <g transform="translate(15, 160)">
      <rect width="18" height="18" fill="#1976D2" stroke="#0D47A1" stroke-width="2"/>
      <text x="28" y="14" font-size="11">★ 머신러닝 (PPO)</text>
    </g>
    <g transform="translate(15, 190)">
      <line x1="0" y1="9" x2="20" y2="9" stroke="#C62828" stroke-width="2" marker-end="url(#arrow-ros2)"/>
      <text x="28" y="14" font-size="11">ROS2 토픽 (Iⓝ)</text>
    </g>
    <g transform="translate(15, 215)">
      <line x1="0" y1="9" x2="20" y2="9" stroke="#1565C0" stroke-width="2" marker-end="url(#arrow-data)"/>
      <text x="28" y="14" font-size="11">내부 데이터 흐름</text>
    </g>
    <g transform="translate(15, 240)">
      <line x1="0" y1="9" x2="20" y2="9" stroke="#888" stroke-width="2" stroke-dasharray="3,2" marker-end="url(#arrow-dash)"/>
      <text x="28" y="14" font-size="11">static (1회 load)</text>
    </g>
  </g>

  <!-- ═══════════════════════════════════ -->
  <!-- T1 ENVIRONMENT (TOP) -->
  <!-- ═══════════════════════════════════ -->
  <g transform="translate(40, 130)">
    <rect width="1320" height="180" fill="#FFF8E1" stroke="#E65100" stroke-width="2.5" rx="10"/>
    <rect width="1320" height="32" fill="#E65100" rx="10"/>
    <rect width="1320" height="20" y="12" fill="#E65100"/>
    <text x="20" y="22" font-size="15" font-weight="bold" fill="white">🗺️ T1 Environment (offline 사전 생성)</text>

    <g transform="translate(30, 55)">
      <rect width="240" height="110" fill="#FFE0B2" stroke="#BF360C" stroke-width="1.5" rx="6"/>
      <text x="120" y="22" font-size="12" font-weight="bold" text-anchor="middle">🎲 Procedural Generator</text>
      <text x="120" y="44" font-size="10" text-anchor="middle" fill="#555">Perlin noise (4 octaves)</text>
      <text x="120" y="60" font-size="10" text-anchor="middle" fill="#555">암석 rejection sampling</text>
      <text x="120" y="76" font-size="10" text-anchor="middle" fill="#555">광물 + 가치 분포</text>
      <text x="120" y="92" font-size="10" text-anchor="middle" fill="#666">seed별 30~50개 batch</text>
    </g>

    <g transform="translate(300, 55)">
      <rect width="240" height="110" fill="#FFE0B2" stroke="#BF360C" stroke-width="1.5" rx="6"/>
      <text x="120" y="22" font-size="12" font-weight="bold" text-anchor="middle">📦 USD Assets</text>
      <text x="120" y="44" font-size="10" text-anchor="middle" fill="#555">terrain_only.usd</text>
      <text x="120" y="60" font-size="10" text-anchor="middle" fill="#555">rocks_merged.usd</text>
      <text x="120" y="76" font-size="10" text-anchor="middle" fill="#555">basecamp_dome.usd</text>
      <text x="120" y="92" font-size="10" text-anchor="middle" fill="#666">→ Isaac Sim load</text>
    </g>

    <g transform="translate(570, 55)">
      <rect width="240" height="110" fill="#FFE0B2" stroke="#BF360C" stroke-width="1.5" rx="6"/>
      <text x="120" y="22" font-size="12" font-weight="bold" text-anchor="middle">🗺️ Grid Data</text>
      <text x="120" y="44" font-size="10" text-anchor="middle" fill="#555">heightmap.npy (1000²)</text>
      <text x="120" y="60" font-size="10" text-anchor="middle" fill="#555">obstacle_grid.npy</text>
      <text x="120" y="80" font-size="10" font-weight="bold" text-anchor="middle" fill="#BF360C">⭐ T5 TRN과 T3 A*가 사용</text>
    </g>

    <g transform="translate(840, 55)">
      <rect width="240" height="110" fill="#FFE0B2" stroke="#BF360C" stroke-width="1.5" rx="6"/>
      <text x="120" y="22" font-size="12" font-weight="bold" text-anchor="middle">📋 meta.json</text>
      <text x="120" y="44" font-size="10" text-anchor="middle" fill="#555">spawn / basecamp / minerals</text>
      <text x="120" y="60" font-size="10" text-anchor="middle" fill="#555">minimap grid / physics_zones</text>
      <text x="120" y="76" font-size="10" text-anchor="middle" fill="#555">difficulty score</text>
      <text x="120" y="92" font-size="10" font-weight="bold" text-anchor="middle" fill="#BF360C">I1: 모든 트랙 consumer</text>
    </g>

    <text x="1230" y="95" font-size="11" text-anchor="middle" fill="#666">Mars Physics</text>
    <text x="1230" y="115" font-size="11" text-anchor="middle" fill="#666">Tier 1 (gravity 3.72)</text>
    <text x="1230" y="135" font-size="11" text-anchor="middle" fill="#666">Tier 2 zones → T5</text>
  </g>

  <!-- I1 arrow: T1 → 모두 (dashed) -->
  <line x1="700" y1="310" x2="700" y2="335" stroke="#888" stroke-width="2.5" stroke-dasharray="5,3" marker-end="url(#arrow-dash)"/>
  <text x="715" y="328" font-size="10" fill="#666"><tspan font-weight="bold">I1</tspan> static load</text>

  <!-- ═══════════════════════════════════ -->
  <!-- ISAAC SIM CORE -->
  <!-- ═══════════════════════════════════ -->
  <g transform="translate(40, 340)">
    <rect width="1320" height="180" fill="#F5F5F5" stroke="#424242" stroke-width="2.5" rx="10"/>
    <rect width="1320" height="32" fill="#424242" rx="10"/>
    <rect width="1320" height="20" y="12" fill="#424242"/>
    <text x="20" y="22" font-size="15" font-weight="bold" fill="white">🎮 Isaac Sim 5.1 + IsaacLab 2.3 (런타임 시뮬 코어)</text>

    <g transform="translate(30, 55)">
      <rect width="380" height="110" fill="white" stroke="#666" stroke-width="1.5" rx="6"/>
      <text x="190" y="22" font-size="13" font-weight="bold" text-anchor="middle">🌍 Scene</text>
      <text x="190" y="44" font-size="11" text-anchor="middle">로드된 T1 terrain + 로버 + 광물</text>
      <text x="190" y="60" font-size="11" text-anchor="middle">베이스캠프 visual + M0609 부착</text>
      <text x="190" y="78" font-size="11" text-anchor="middle">PhysX (gravity 3.72)</text>
      <text x="190" y="98" font-size="10" font-style="italic" text-anchor="middle" fill="#666">GT pose 내부 보유 (시뮬 검증용)</text>
    </g>

    <g transform="translate(440, 55)">
      <rect width="380" height="110" fill="white" stroke="#666" stroke-width="1.5" rx="6"/>
      <text x="190" y="22" font-size="13" font-weight="bold" text-anchor="middle">📡 시뮬레이션 센서 (5종)</text>
      <text x="190" y="44" font-size="11" text-anchor="middle">📷 Camera (640×480 RGB, 마스트)</text>
      <text x="190" y="60" font-size="11" text-anchor="middle">🎯 IMU (자이로+가속도, 노이즈 포함)</text>
      <text x="190" y="76" font-size="11" text-anchor="middle">⚙️ Wheel encoder (joint_vel)</text>
      <text x="190" y="92" font-size="11" text-anchor="middle">📏 RayCaster 5m×5m (100×100 ray)</text>
      <text x="190" y="108" font-size="10" fill="#1565C0" text-anchor="middle">→ T2 Vision / T5 Localization 입력</text>
    </g>

    <g transform="translate(850, 55)">
      <rect width="440" height="110" fill="white" stroke="#666" stroke-width="1.5" rx="6"/>
      <text x="220" y="22" font-size="13" font-weight="bold" text-anchor="middle">⚙️ Actuators</text>
      <text x="220" y="44" font-size="11" text-anchor="middle">6 Drive joints (휠 속도 명령)</text>
      <text x="220" y="60" font-size="11" text-anchor="middle">4 Steer joints (조향각 명령)</text>
      <text x="220" y="76" font-size="11" text-anchor="middle">6 M0609 joints (Tier 1.5 scripted)</text>
      <text x="220" y="98" font-size="10" fill="#1565C0" text-anchor="middle">← T3 Ackermann / T2 M0609 명령 수신</text>
    </g>
  </g>

  <!-- Branch arrows from Isaac Sim to perception -->
  <line x1="280" y1="520" x2="280" y2="565" stroke="#1565C0" stroke-width="2.5" marker-end="url(#arrow-data)"/>
  <text x="290" y="555" font-size="11" fill="#1565C0">camera</text>

  <line x1="700" y1="520" x2="700" y2="565" stroke="#1565C0" stroke-width="2.5" marker-end="url(#arrow-data)"/>
  <text x="710" y="555" font-size="11" fill="#1565C0">IMU / Wheel / RayCaster / Sun</text>

  <!-- ═══════════════════════════════════ -->
  <!-- T2 PERCEPTION (LEFT) + T5 LOCALIZATION (RIGHT) -->
  <!-- ═══════════════════════════════════ -->

  <!-- T2 Perception -->
  <g transform="translate(40, 570)">
    <rect width="420" height="280" fill="#E8F5E9" stroke="#2E7D32" stroke-width="2.5" rx="10"/>
    <rect width="420" height="32" fill="#2E7D32" rx="10"/>
    <rect width="420" height="20" y="12" fill="#2E7D32"/>
    <text x="20" y="22" font-size="15" font-weight="bold" fill="white">👁️ T2 Perception (광물 인식)</text>

    <g transform="translate(20, 55)">
      <rect width="380" height="56" fill="white" stroke="#1B5E20" stroke-width="1.5" rx="6"/>
      <text x="190" y="22" font-size="12" font-weight="bold" text-anchor="middle">📷 HSV Color Detector</text>
      <text x="190" y="42" font-size="10" text-anchor="middle" fill="#555">RGB → HSV → hue threshold</text>
    </g>

    <line x1="210" y1="111" x2="210" y2="128" stroke="#2E7D32" stroke-width="2" marker-end="url(#arrow-data)"/>

    <g transform="translate(20, 130)">
      <rect width="380" height="56" fill="white" stroke="#1B5E20" stroke-width="1.5" rx="6"/>
      <text x="190" y="22" font-size="12" font-weight="bold" text-anchor="middle">🔵 Connected Components</text>
      <text x="190" y="42" font-size="10" text-anchor="middle" fill="#555">광물 픽셀 → 객체 단위 묶음</text>
    </g>

    <line x1="210" y1="186" x2="210" y2="203" stroke="#2E7D32" stroke-width="2" marker-end="url(#arrow-data)"/>

    <g transform="translate(20, 205)">
      <rect width="380" height="60" fill="white" stroke="#1B5E20" stroke-width="1.5" rx="6"/>
      <text x="190" y="22" font-size="12" font-weight="bold" text-anchor="middle">🗺️ 2D→3D Projection</text>
      <text x="190" y="40" font-size="10" text-anchor="middle" fill="#555">픽셀 좌표 + T5 pose → 월드 좌표</text>
      <text x="190" y="55" font-size="9" text-anchor="middle" fill="#C62828">▼ T5 estimated_pose 사용 (간접 의존)</text>
    </g>
  </g>

  <!-- T5 Localization (right) -->
  <g transform="translate(490, 570)">
    <rect width="870" height="280" fill="#FFEBEE" stroke="#C62828" stroke-width="2.5" rx="10"/>
    <rect width="870" height="32" fill="#C62828" rx="10"/>
    <rect width="870" height="20" y="12" fill="#C62828"/>
    <text x="20" y="22" font-size="15" font-weight="bold" fill="white">📍 T5 Localization (TRN-based, GPS 없는 화성 위치 추정)</text>

    <!-- 4 sensor processing boxes -->
    <g transform="translate(20, 55)">
      <rect width="190" height="80" fill="white" stroke="#B71C1C" stroke-width="1.5" rx="6"/>
      <text x="95" y="22" font-size="11" font-weight="bold" text-anchor="middle">⚙️ Wheel Odom</text>
      <text x="95" y="42" font-size="10" text-anchor="middle" fill="#555">joint_vel 적분</text>
      <text x="95" y="58" font-size="10" text-anchor="middle" fill="#555">+ Ackermann 모델</text>
      <text x="95" y="74" font-size="9" text-anchor="middle" fill="#888">(슬립 시 부정확)</text>
    </g>

    <g transform="translate(220, 55)">
      <rect width="190" height="80" fill="white" stroke="#B71C1C" stroke-width="1.5" rx="6"/>
      <text x="95" y="22" font-size="11" font-weight="bold" text-anchor="middle">🎯 IMU Integration</text>
      <text x="95" y="42" font-size="10" text-anchor="middle" fill="#555">자이로 적분 → 방위</text>
      <text x="95" y="58" font-size="10" text-anchor="middle" fill="#555">가속도 적분 → 속도</text>
      <text x="95" y="74" font-size="9" text-anchor="middle" fill="#888">(시간 따라 드리프트)</text>
    </g>

    <g transform="translate(420, 55)">
      <rect width="190" height="80" fill="white" stroke="#B71C1C" stroke-width="1.5" rx="6"/>
      <text x="95" y="22" font-size="11" font-weight="bold" text-anchor="middle">☀️ Sun Yaw</text>
      <text x="95" y="42" font-size="10" text-anchor="middle" fill="#555">광원 위치 + 로봇 자세</text>
      <text x="95" y="58" font-size="10" text-anchor="middle" fill="#555">→ 절대 방위</text>
      <text x="95" y="74" font-size="9" text-anchor="middle" fill="#888">(드리프트 없음)</text>
    </g>

    <g transform="translate(620, 55)">
      <rect width="230" height="80" fill="#FFCDD2" stroke="#B71C1C" stroke-width="2" rx="6"/>
      <text x="115" y="22" font-size="11" font-weight="bold" text-anchor="middle">⭐ TRN (Terrain Relative)</text>
      <text x="115" y="40" font-size="10" text-anchor="middle" fill="#555">RayCaster 로컬 heightmap</text>
      <text x="115" y="55" font-size="10" text-anchor="middle" fill="#555">vs T1 global heightmap.npy</text>
      <text x="115" y="70" font-size="10" font-weight="bold" text-anchor="middle" fill="#B71C1C">→ correlation 매칭</text>
    </g>

    <!-- 4 arrows pointing to EKF -->
    <line x1="115" y1="135" x2="280" y2="170" stroke="#C62828" stroke-width="1.5" marker-end="url(#arrow-data)"/>
    <line x1="315" y1="135" x2="350" y2="170" stroke="#C62828" stroke-width="1.5" marker-end="url(#arrow-data)"/>
    <line x1="515" y1="135" x2="420" y2="170" stroke="#C62828" stroke-width="1.5" marker-end="url(#arrow-data)"/>
    <line x1="735" y1="135" x2="490" y2="170" stroke="#C62828" stroke-width="2" marker-end="url(#arrow-data)"/>

    <!-- EKF Fusion -->
    <g transform="translate(150, 170)">
      <rect width="570" height="55" fill="#FFCDD2" stroke="#B71C1C" stroke-width="2" rx="6"/>
      <text x="285" y="22" font-size="13" font-weight="bold" text-anchor="middle">🧮 Extended Kalman Filter (EKF) — 다중 센서 융합</text>
      <text x="285" y="42" font-size="10" text-anchor="middle" fill="#555">4개 추정치 가중 평균 + 공분산 계산 + TRN으로 누적 드리프트 보정</text>
    </g>

    <line x1="435" y1="225" x2="435" y2="242" stroke="#C62828" stroke-width="2.5" marker-end="url(#arrow-data)"/>

    <g transform="translate(285, 244)">
      <rect width="300" height="25" fill="#B71C1C" rx="4"/>
      <text x="150" y="17" font-size="11" font-weight="bold" text-anchor="middle" fill="white">📍 estimated_pose + 공분산</text>
    </g>
  </g>

  <!-- I2: T2 → T3 -->
  <line x1="250" y1="850" x2="250" y2="900" stroke="#C62828" stroke-width="2.5" marker-end="url(#arrow-ros2)"/>
  <text x="80" y="876" font-size="11" font-weight="bold" fill="#C62828">I2 /perception/detections</text>
  <text x="80" y="890" font-size="9" fill="#666">DetectionArray.msg @10Hz</text>

  <!-- I5: T5 → T3 -->
  <line x1="925" y1="850" x2="925" y2="900" stroke="#C62828" stroke-width="2.5" marker-end="url(#arrow-ros2)"/>
  <text x="940" y="876" font-size="11" font-weight="bold" fill="#C62828">I5 /rover/estimated_pose</text>
  <text x="940" y="890" font-size="9" fill="#666">PoseWithCovarianceStamped @30Hz</text>

  <!-- T5 → T2 (estimated_pose for 2D→3D projection) -->
  <path d="M 600 720 Q 470 720 460 760" fill="none" stroke="#C62828" stroke-width="1.5" stroke-dasharray="3,2" marker-end="url(#arrow-ros2)"/>
  <text x="475" y="730" font-size="9" fill="#C62828">(I5 간접 사용)</text>

  <!-- ═══════════════════════════════════ -->
  <!-- T3 DRIVING (CENTER) -->
  <!-- ═══════════════════════════════════ -->
  <g transform="translate(40, 905)">
    <rect width="1320" height="490" fill="#E3F2FD" stroke="#1976D2" stroke-width="2.5" rx="10"/>
    <rect width="1320" height="32" fill="#1976D2" rx="10"/>
    <rect width="1320" height="20" y="12" fill="#1976D2"/>
    <text x="20" y="22" font-size="15" font-weight="bold" fill="white">🚗 T3 Driving (Mission Brain + 경로 계획 + 저수준 주행)</text>

    <!-- Mission FSM (top) -->
    <g transform="translate(440, 55)">
      <rect width="440" height="70" fill="#BBDEFB" stroke="#0D47A1" stroke-width="2" rx="6"/>
      <text x="220" y="25" font-size="14" font-weight="bold" text-anchor="middle">🎯 Mission FSM</text>
      <text x="220" y="45" font-size="11" text-anchor="middle" fill="#555">"지금 무슨 phase?"</text>
      <text x="220" y="62" font-size="11" font-weight="bold" text-anchor="middle" fill="#1976D2">
        EXPLORE → APPROACH → PICK → RETURN → DONE
      </text>
    </g>

    <!-- Branches from FSM -->
    <line x1="540" y1="125" x2="380" y2="170" stroke="#1565C0" stroke-width="2" marker-end="url(#arrow-data)"/>
    <text x="440" y="155" font-size="10" font-weight="bold" fill="#1976D2">EXPLORE</text>

    <line x1="780" y1="125" x2="940" y2="170" stroke="#1565C0" stroke-width="2" marker-end="url(#arrow-data)"/>
    <text x="855" y="155" font-size="10" font-weight="bold" fill="#1976D2">APPROACH/RETURN</text>

    <line x1="660" y1="125" x2="660" y2="285" stroke="#C62828" stroke-width="2" stroke-dasharray="5,3" marker-end="url(#arrow-ros2)"/>
    <text x="675" y="260" font-size="10" font-weight="bold" fill="#C62828">I3 PICK 요청 시</text>

    <!-- Coverage Planner -->
    <g transform="translate(200, 175)">
      <rect width="360" height="80" fill="#BBDEFB" stroke="#0D47A1" stroke-width="1.5" rx="6"/>
      <text x="180" y="22" font-size="12" font-weight="bold" text-anchor="middle">🗺️ Coverage Planner</text>
      <text x="180" y="42" font-size="10" text-anchor="middle" fill="#555">미니맵 25×25 셀 추적</text>
      <text x="180" y="58" font-size="10" text-anchor="middle" fill="#555">미방문 셀 → next goal (greedy frontier)</text>
      <text x="180" y="74" font-size="9" text-anchor="middle" fill="#666">→ Roomba처럼 영역 sweep</text>
    </g>

    <!-- Goal Setter (right) -->
    <g transform="translate(760, 175)">
      <rect width="360" height="80" fill="#BBDEFB" stroke="#0D47A1" stroke-width="1.5" rx="6"/>
      <text x="180" y="22" font-size="12" font-weight="bold" text-anchor="middle">🎯 Goal Setter</text>
      <text x="180" y="42" font-size="10" text-anchor="middle" fill="#555">APPROACH: 광물 좌표 (T2 detection)</text>
      <text x="180" y="58" font-size="10" text-anchor="middle" fill="#555">RETURN: 베이스캠프 (T1 meta)</text>
      <text x="180" y="74" font-size="9" text-anchor="middle" fill="#666">+ 가치점수 우선순위 정렬</text>
    </g>

    <!-- Merge to A* -->
    <line x1="380" y1="255" x2="600" y2="285" stroke="#1565C0" stroke-width="2" marker-end="url(#arrow-data)"/>
    <line x1="940" y1="255" x2="720" y2="285" stroke="#1565C0" stroke-width="2" marker-end="url(#arrow-data)"/>
    <text x="660" y="278" font-size="10" text-anchor="middle" fill="#666">goal (x, y)</text>

    <!-- A* Path Planner -->
    <g transform="translate(450, 290)">
      <rect width="420" height="80" fill="#BBDEFB" stroke="#0D47A1" stroke-width="1.5" rx="6"/>
      <text x="210" y="22" font-size="13" font-weight="bold" text-anchor="middle">🛣️ A* Path Planner</text>
      <text x="210" y="42" font-size="10" text-anchor="middle" fill="#555">현재 pose + T1 obstacle_grid + heightmap</text>
      <text x="210" y="58" font-size="10" text-anchor="middle" fill="#555">→ 안전 waypoint 리스트</text>
      <text x="210" y="74" font-size="9" text-anchor="middle" fill="#666">큰 바위·절벽 회피 (grid level)</text>
    </g>

    <line x1="660" y1="370" x2="660" y2="395" stroke="#1565C0" stroke-width="2.5" marker-end="url(#arrow-data)"/>
    <text x="685" y="385" font-size="10" fill="#666">waypoints</text>

    <!-- PPO Wrapper ★ML -->
    <g transform="translate(420, 400)">
      <rect width="480" height="80" fill="#1976D2" stroke="#0D47A1" stroke-width="3" rx="6"/>
      <text x="240" y="24" font-size="14" font-weight="bold" text-anchor="middle" fill="white">🤖 PPO Wrapper ★ML 영역</text>
      <text x="240" y="44" font-size="11" text-anchor="middle" fill="#FFF59D">클론 best_agent_ppo.pt 재사용</text>
      <text x="240" y="60" font-size="10" text-anchor="middle" fill="#E3F2FD">waypoint 추종 + RayCaster height_scan 미세 회피</text>
      <text x="240" y="74" font-size="10" text-anchor="middle" fill="#E3F2FD">지형 적응 (슬립 / 슬로프 / 작은 돌)</text>
    </g>

    <!-- I5 input to T3 -->
    <line x1="975" y1="200" x2="930" y2="220" stroke="#888" stroke-width="1" stroke-dasharray="2,2"/>
    <text x="970" y="180" font-size="9" fill="#C62828">I5 pose 입력</text>
  </g>

  <!-- T3 outputs branching -->
  <!-- I3: T3 FSM → T2 Manip (right) -->
  <line x1="700" y1="1395" x2="1200" y2="1480" stroke="#C62828" stroke-width="2.5" stroke-dasharray="4,3" marker-end="url(#arrow-ros2)"/>
  <text x="1080" y="1430" font-size="10" font-weight="bold" fill="#C62828">I3 /mission/pick_request</text>

  <!-- T3 PPO → Ackermann -->
  <line x1="600" y1="1395" x2="600" y2="1430" stroke="#1565C0" stroke-width="2.5" marker-end="url(#arrow-data)"/>
  <text x="620" y="1418" font-size="10" fill="#1565C0">action [steer, throttle]</text>

  <!-- ═══════════════════════════════════ -->
  <!-- ACKERMANN + T2 M0609 (BOTTOM) -->
  <!-- ═══════════════════════════════════ -->

  <!-- Ackermann -->
  <g transform="translate(360, 1435)">
    <rect width="500" height="100" fill="#BBDEFB" stroke="#0D47A1" stroke-width="2" rx="8"/>
    <text x="250" y="25" font-size="14" font-weight="bold" text-anchor="middle">⚙️ Ackermann 변환</text>
    <text x="250" y="48" font-size="11" text-anchor="middle" fill="#555">2D action → 4 조향각 + 6 휠 속도</text>
    <text x="250" y="65" font-size="10" text-anchor="middle" fill="#555">기하학 수식 (학습 X)</text>
    <text x="250" y="85" font-size="10" text-anchor="middle" fill="#666">point-turn 모드 자동 전환 (소반경 시)</text>
  </g>

  <!-- T2 M0609 -->
  <g transform="translate(1000, 1435)">
    <rect width="360" height="100" fill="#C8E6C9" stroke="#2E7D32" stroke-width="2" rx="8"/>
    <text x="180" y="25" font-size="14" font-weight="bold" text-anchor="middle">🦾 T2 M0609 Manipulation</text>
    <text x="180" y="46" font-size="11" text-anchor="middle" fill="#555">Tier 1.5: scripted trajectory</text>
    <text x="180" y="62" font-size="11" text-anchor="middle" fill="#555">approach → grasp → 광물 텔레포트</text>
    <text x="180" y="82" font-size="10" font-weight="bold" text-anchor="middle" fill="#C62828">I4 /mission/pick_response → T3</text>
  </g>

  <!-- I4 response back -->
  <path d="M 1180 1435 Q 1180 1420 1180 1410 Q 1180 1395 660 1395" fill="none" stroke="#C62828" stroke-width="1.5" stroke-dasharray="3,2" marker-end="url(#arrow-ros2)"/>

  <!-- Joint commands to Isaac Sim (loopback) -->
  <path d="M 360 1485 L 30 1485 L 30 400 L 40 400" fill="none" stroke="#1565C0" stroke-width="2.5" marker-end="url(#arrow-data)"/>
  <text x="10" y="1000" font-size="11" fill="#1565C0" transform="rotate(-90, 10, 1000)">6 wheel + 4 steer joint commands</text>

  <path d="M 1360 1485 L 1380 1485 L 1380 400 L 1360 400" fill="none" stroke="#1565C0" stroke-width="2.5" marker-end="url(#arrow-data)"/>
  <text x="1390" y="1000" font-size="11" fill="#1565C0" transform="rotate(90, 1390, 1000)">M0609 joints + 광물 텔레포트</text>

  <!-- ═══════════════════════════════════ -->
  <!-- T4 INTEGRATION + UI (BOTTOM) -->
  <!-- ═══════════════════════════════════ -->
  <g transform="translate(40, 1560)">
    <rect width="1320" height="320" fill="#F3E5F5" stroke="#6A1B9A" stroke-width="2.5" rx="10" stroke-dasharray="8,4"/>
    <rect width="1320" height="32" fill="#6A1B9A" rx="10"/>
    <rect width="1320" height="20" y="12" fill="#6A1B9A"/>
    <text x="20" y="22" font-size="15" font-weight="bold" fill="white">🔌 T4 Integration + PM (사용자) — UI / ROS2 인프라 / 데모 / PM 역할</text>

    <text x="660" y="60" font-size="12" text-anchor="middle" fill="#4A148C">
      위 모든 트랙이 ROS2 토픽 publish → T4가 subscribe → Mission Control UI 렌더
    </text>

    <!-- UI widgets -->
    <g transform="translate(30, 80)">
      <rect width="300" height="100" fill="white" stroke="#6A1B9A" stroke-width="1.5" rx="6"/>
      <text x="150" y="22" font-size="12" font-weight="bold" text-anchor="middle">📺 RViz 뷰</text>
      <text x="150" y="42" font-size="10" text-anchor="middle" fill="#555">1인칭 / 3인칭 카메라</text>
      <text x="150" y="58" font-size="10" text-anchor="middle" fill="#555">로봇 + 광물 + 베이스캠프 3D</text>
      <text x="150" y="78" font-size="10" text-anchor="middle" fill="#555">/rover/estimated_pose 마커</text>
    </g>

    <g transform="translate(350, 80)">
      <rect width="300" height="100" fill="white" stroke="#6A1B9A" stroke-width="1.5" rx="6"/>
      <text x="150" y="22" font-size="12" font-weight="bold" text-anchor="middle">🗺️ 미니맵 + Coverage</text>
      <text x="150" y="42" font-size="10" text-anchor="middle" fill="#555">25×25 grid 셀 시각화</text>
      <text x="150" y="58" font-size="10" text-anchor="middle" fill="#555">방문/미방문/장애물/광물 색</text>
      <text x="150" y="78" font-size="10" text-anchor="middle" fill="#555">실시간 진행률</text>
    </g>

    <g transform="translate(670, 80)">
      <rect width="300" height="100" fill="white" stroke="#6A1B9A" stroke-width="1.5" rx="6"/>
      <text x="150" y="22" font-size="12" font-weight="bold" text-anchor="middle">📊 미션 상태 패널</text>
      <text x="150" y="42" font-size="10" text-anchor="middle" fill="#555">현재 phase / cargo 개수</text>
      <text x="150" y="58" font-size="10" text-anchor="middle" fill="#555">가치 점수 누적</text>
      <text x="150" y="78" font-size="10" text-anchor="middle" fill="#555">위치 + 공분산 타원 (T5)</text>
    </g>

    <g transform="translate(990, 80)">
      <rect width="300" height="100" fill="white" stroke="#6A1B9A" stroke-width="1.5" rx="6"/>
      <text x="150" y="22" font-size="12" font-weight="bold" text-anchor="middle">🎬 데모 + PM</text>
      <text x="150" y="42" font-size="10" text-anchor="middle" fill="#555">시나리오 orchestration</text>
      <text x="150" y="58" font-size="10" text-anchor="middle" fill="#555">발표 자료 + 백업 영상</text>
      <text x="150" y="78" font-size="10" text-anchor="middle" fill="#555">DIST 매일 통합 테스트</text>
    </g>

    <!-- Subscribed topics list -->
    <g transform="translate(30, 200)">
      <rect width="1260" height="100" fill="#FAFAFA" stroke="#6A1B9A" stroke-width="1" rx="6"/>
      <text x="20" y="22" font-size="12" font-weight="bold" fill="#4A148C">📡 T4 Subscribes (모든 트랙의 출력):</text>
      <text x="20" y="42" font-size="10" fill="#555">  <tspan fill="#C62828" font-weight="bold">I2</tspan> /perception/detections        <tspan fill="#C62828" font-weight="bold">I5</tspan> /rover/estimated_pose      /robot/camera/image_raw</text>
      <text x="20" y="58" font-size="10" fill="#555">  (T3 deferred) /mission/status      /mission/minimap       /mission/path        /mission/cargo_event</text>
      <text x="20" y="80" font-size="10" font-style="italic" fill="#666">→ I6~I10 (T3↔T4 UI 메시지)는 deferred_interfaces.md에서 Day 4+ 확정</text>
    </g>
  </g>

  <!-- ═══════════════════════════════════ -->
  <!-- 인터페이스 요약표 -->
  <!-- ═══════════════════════════════════ -->
  <g transform="translate(40, 1910)">
    <rect width="1320" height="280" fill="white" stroke="#1565C0" stroke-width="2" rx="10"/>
    <text x="660" y="32" font-size="17" font-weight="bold" text-anchor="middle" fill="#1565C0">📡 Day 1 합의 5개 인터페이스 요약</text>

    <g transform="translate(20, 55)">
      <rect width="60" height="35" fill="#424242"/>
      <text x="30" y="23" font-size="12" font-weight="bold" text-anchor="middle" fill="white">ID</text>
      <rect x="60" width="320" height="35" fill="#424242"/>
      <text x="220" y="23" font-size="12" font-weight="bold" text-anchor="middle" fill="white">토픽 / 형식</text>
      <rect x="380" width="240" height="35" fill="#424242"/>
      <text x="500" y="23" font-size="12" font-weight="bold" text-anchor="middle" fill="white">Producer → Consumer</text>
      <rect x="620" width="120" height="35" fill="#424242"/>
      <text x="680" y="23" font-size="12" font-weight="bold" text-anchor="middle" fill="white">빈도</text>
      <rect x="740" width="540" height="35" fill="#424242"/>
      <text x="1010" y="23" font-size="12" font-weight="bold" text-anchor="middle" fill="white">목적</text>
    </g>

    <g transform="translate(20, 90)" font-size="11">
      <rect width="60" height="35" fill="white"/>
      <text x="30" y="22" font-weight="bold" text-anchor="middle" fill="#C62828">I1</text>
      <rect x="60" width="320" height="35" fill="white"/>
      <text x="75" y="22">terrain_*.usd + meta.json (파일)</text>
      <rect x="380" width="240" height="35" fill="white"/>
      <text x="395" y="22">T1 → 모두 (static)</text>
      <rect x="620" width="120" height="35" fill="white"/>
      <text x="635" y="22">시작 시 1회</text>
      <rect x="740" width="540" height="35" fill="white"/>
      <text x="755" y="22">지도 + spawn + 광물 + 미니맵 grid 공급</text>

      <rect y="35" width="60" height="35" fill="#FAFAFA"/>
      <text x="30" y="57" font-weight="bold" text-anchor="middle" fill="#C62828">I2</text>
      <rect x="60" y="35" width="320" height="35" fill="#FAFAFA"/>
      <text x="75" y="57">/perception/detections (DetectionArray)</text>
      <rect x="380" y="35" width="240" height="35" fill="#FAFAFA"/>
      <text x="395" y="57">T2 → T3 (+ T4)</text>
      <rect x="620" y="35" width="120" height="35" fill="#FAFAFA"/>
      <text x="635" y="57">10 Hz</text>
      <rect x="740" y="35" width="540" height="35" fill="#FAFAFA"/>
      <text x="755" y="57">광물 detection 결과 (좌표 + 신뢰도 + 가치점수)</text>

      <rect y="70" width="60" height="35" fill="white"/>
      <text x="30" y="92" font-weight="bold" text-anchor="middle" fill="#C62828">I3</text>
      <rect x="60" y="70" width="320" height="35" fill="white"/>
      <text x="75" y="92">/mission/pick_request (PickRequest)</text>
      <rect x="380" y="70" width="240" height="35" fill="white"/>
      <text x="395" y="92">T3 → T2 (M0609)</text>
      <rect x="620" y="70" width="120" height="35" fill="white"/>
      <text x="635" y="92">event</text>
      <rect x="740" y="70" width="540" height="35" fill="white"/>
      <text x="755" y="92">"이 광물 잡아" 요청 (mineral_id + 좌표 + timeout)</text>

      <rect y="105" width="60" height="35" fill="#FAFAFA"/>
      <text x="30" y="127" font-weight="bold" text-anchor="middle" fill="#C62828">I4</text>
      <rect x="60" y="105" width="320" height="35" fill="#FAFAFA"/>
      <text x="75" y="127">/mission/pick_response (PickResponse)</text>
      <rect x="380" y="105" width="240" height="35" fill="#FAFAFA"/>
      <text x="395" y="127">T2 (M0609) → T3</text>
      <rect x="620" y="105" width="120" height="35" fill="#FAFAFA"/>
      <text x="635" y="127">event</text>
      <rect x="740" y="105" width="540" height="35" fill="#FAFAFA"/>
      <text x="755" y="127">pick 결과: success/failed_grasp/timeout/no_object</text>

      <rect y="140" width="60" height="35" fill="white"/>
      <text x="30" y="162" font-weight="bold" text-anchor="middle" fill="#C62828">I5</text>
      <rect x="60" y="140" width="320" height="35" fill="white"/>
      <text x="75" y="162">/rover/estimated_pose (ROS2 표준)</text>
      <rect x="380" y="140" width="240" height="35" fill="white"/>
      <text x="395" y="162">T5 → T3 (+ T4)</text>
      <rect x="620" y="140" width="120" height="35" fill="white"/>
      <text x="635" y="162">30 Hz</text>
      <rect x="740" y="140" width="540" height="35" fill="white"/>
      <text x="755" y="162">TRN 기반 추정 위치 + 6×6 공분산</text>
    </g>

    <text x="660" y="265" font-size="11" font-style="italic" text-anchor="middle" fill="#666">
      ※ I6~I10 (UI 시각화 토픽: pose_sources, status, minimap, path, cargo_event)은 T3↔T4 Day 4+ 확정 (deferred)
    </text>
  </g>

  <!-- ═══ 하단 한 줄 ═══ -->
  <text x="850" y="2370" font-size="13" font-weight="bold" text-anchor="middle" fill="#444">
    💡 핵심: T1=지도공급 / T5=TRN으로 위치추정 / T3=의사결정+주행 / T2=인지+조작 / T4=통합+UI+PM
  </text>

</svg>
