<?xml version="1.0" encoding="UTF-8"?>
<svg xmlns="http://www.w3.org/2000/svg"
     viewBox="0 0 1400 1850"
     font-family="'Apple SD Gothic Neo', 'Malgun Gothic', 'Noto Sans KR', sans-serif">

  <defs>
    <marker id="arrow-motion" markerWidth="14" markerHeight="14" refX="13" refY="7" orient="auto">
      <path d="M0,0 L0,14 L13,7 z" fill="#F57F17"/>
    </marker>
    <marker id="arrow-wheel" markerWidth="8" markerHeight="8" refX="7" refY="4" orient="auto">
      <path d="M0,0 L0,8 L7,4 z" fill="#1565C0"/>
    </marker>
    <marker id="arrow-wheel-rev" markerWidth="8" markerHeight="8" refX="7" refY="4" orient="auto">
      <path d="M0,0 L0,8 L7,4 z" fill="#C62828"/>
    </marker>
    <marker id="arrow-x" markerWidth="8" markerHeight="8" refX="7" refY="4" orient="auto">
      <path d="M0,0 L0,8 L7,4 z" fill="#666"/>
    </marker>
  </defs>

  <rect width="1400" height="1850" fill="#FAFAFA"/>

  <!-- ═══ TITLE ═══ -->
  <rect x="0" y="0" width="1400" height="100" fill="#1565C0"/>
  <text x="700" y="42" font-size="26" font-weight="bold" text-anchor="middle" fill="white">
    🛻 클론 프로젝트 vs 실제 NASA 화성 로버 조향 비교
  </text>
  <text x="700" y="72" font-size="14" text-anchor="middle" fill="#BBDEFB">
    AAU Mars Rover (Ackermann) vs Curiosity/Perseverance (Independent Steering)
  </text>

  <!-- ═══ COLUMN HEADERS ═══ -->
  <g transform="translate(0, 110)">
    <rect x="50" y="0" width="600" height="50" fill="#E8F5E9" stroke="#2E7D32" stroke-width="2" rx="8"/>
    <text x="350" y="32" font-size="18" font-weight="bold" text-anchor="middle" fill="#1B5E20">
      🔧 AAU Mars Rover (클론 사용)
    </text>

    <rect x="750" y="0" width="600" height="50" fill="#FFF3E0" stroke="#E65100" stroke-width="2" rx="8"/>
    <text x="1050" y="32" font-size="18" font-weight="bold" text-anchor="middle" fill="#BF360C">
      🚀 NASA Curiosity / Perseverance (실 모델)
    </text>
  </g>

  <!-- ═══ COMMON STRUCTURE BOX ═══ -->
  <g transform="translate(50, 175)">
    <rect width="1300" height="60" fill="#F5F5F5" stroke="#666" stroke-width="1" stroke-dasharray="4,2" rx="6"/>
    <text x="650" y="25" font-size="14" font-weight="bold" text-anchor="middle">📌 공통: 6륜 + Rocker-Bogie 서스펜션 + 4개 조향 휠 (FL/FR/RL/RR) + 2개 고정 중간 휠 (ML/MR)</text>
    <text x="650" y="48" font-size="12" text-anchor="middle" fill="#555">차이는 "조향 휠 제어 방식" 에 집중 — Ackermann 기하 coupling vs Independent</text>
  </g>

  <!-- ═══════════════════════════ -->
  <!-- 시나리오 1: 직진 -->
  <!-- ═══════════════════════════ -->
  <g transform="translate(50, 260)">
    <rect width="1300" height="220" fill="white" stroke="#BDBDBD" stroke-width="1" rx="8"/>
    <text x="20" y="28" font-size="16" font-weight="bold" fill="#212121">시나리오 ①  직진 (Straight Forward)</text>

    <!-- AAU 직진 -->
    <g transform="translate(80, 50)">
      <!-- Body -->
      <rect x="200" y="40" width="200" height="120" fill="#E0E0E0" stroke="#424242" stroke-width="2" rx="4"/>
      <text x="300" y="105" font-size="11" text-anchor="middle" fill="#666">AAU Body</text>

      <!-- 6 wheels (all straight, all forward) -->
      <!-- FL -->
      <rect x="180" y="45" width="28" height="12" fill="#2196F3" stroke="#0D47A1"/>
      <line x1="194" y1="62" x2="194" y2="78" stroke="#1565C0" stroke-width="2" marker-end="url(#arrow-wheel)"/>
      <!-- FR -->
      <rect x="392" y="45" width="28" height="12" fill="#2196F3" stroke="#0D47A1"/>
      <line x1="406" y1="62" x2="406" y2="78" stroke="#1565C0" stroke-width="2" marker-end="url(#arrow-wheel)"/>
      <!-- ML -->
      <rect x="170" y="94" width="28" height="12" fill="#9E9E9E" stroke="#424242"/>
      <line x1="184" y1="111" x2="184" y2="127" stroke="#1565C0" stroke-width="2" marker-end="url(#arrow-wheel)"/>
      <!-- MR -->
      <rect x="402" y="94" width="28" height="12" fill="#9E9E9E" stroke="#424242"/>
      <line x1="416" y1="111" x2="416" y2="127" stroke="#1565C0" stroke-width="2" marker-end="url(#arrow-wheel)"/>
      <!-- RL -->
      <rect x="180" y="143" width="28" height="12" fill="#2196F3" stroke="#0D47A1"/>
      <line x1="194" y1="160" x2="194" y2="176" stroke="#1565C0" stroke-width="2" marker-end="url(#arrow-wheel)"/>
      <!-- RR -->
      <rect x="392" y="143" width="28" height="12" fill="#2196F3" stroke="#0D47A1"/>
      <line x1="406" y1="160" x2="406" y2="176" stroke="#1565C0" stroke-width="2" marker-end="url(#arrow-wheel)"/>

      <!-- Body motion arrow -->
      <line x1="300" y1="100" x2="300" y2="20" stroke="#F57F17" stroke-width="4" marker-end="url(#arrow-motion)"/>
      <text x="320" y="55" font-size="12" font-weight="bold" fill="#E65100">전진</text>

      <!-- Description -->
      <text x="0" y="180" font-size="11" fill="#555">조향각 모두 0°, 6륜 동일 속도</text>
    </g>

    <!-- 중앙 divider -->
    <line x1="650" y1="50" x2="650" y2="200" stroke="#BDBDBD" stroke-dasharray="3,3"/>

    <!-- NASA 직진 -->
    <g transform="translate(680, 50)">
      <rect x="200" y="40" width="200" height="120" fill="#FFE0B2" stroke="#BF360C" stroke-width="2" rx="4"/>
      <text x="300" y="105" font-size="11" text-anchor="middle" fill="#5D4037">Curiosity Body</text>

      <!-- 6 wheels (same as AAU for straight) -->
      <rect x="180" y="45" width="28" height="12" fill="#FF9800" stroke="#E65100"/>
      <line x1="194" y1="62" x2="194" y2="78" stroke="#1565C0" stroke-width="2" marker-end="url(#arrow-wheel)"/>
      <rect x="392" y="45" width="28" height="12" fill="#FF9800" stroke="#E65100"/>
      <line x1="406" y1="62" x2="406" y2="78" stroke="#1565C0" stroke-width="2" marker-end="url(#arrow-wheel)"/>
      <rect x="170" y="94" width="28" height="12" fill="#9E9E9E" stroke="#424242"/>
      <line x1="184" y1="111" x2="184" y2="127" stroke="#1565C0" stroke-width="2" marker-end="url(#arrow-wheel)"/>
      <rect x="402" y="94" width="28" height="12" fill="#9E9E9E" stroke="#424242"/>
      <line x1="416" y1="111" x2="416" y2="127" stroke="#1565C0" stroke-width="2" marker-end="url(#arrow-wheel)"/>
      <rect x="180" y="143" width="28" height="12" fill="#FF9800" stroke="#E65100"/>
      <line x1="194" y1="160" x2="194" y2="176" stroke="#1565C0" stroke-width="2" marker-end="url(#arrow-wheel)"/>
      <rect x="392" y="143" width="28" height="12" fill="#FF9800" stroke="#E65100"/>
      <line x1="406" y1="160" x2="406" y2="176" stroke="#1565C0" stroke-width="2" marker-end="url(#arrow-wheel)"/>

      <line x1="300" y1="100" x2="300" y2="20" stroke="#F57F17" stroke-width="4" marker-end="url(#arrow-motion)"/>
      <text x="320" y="55" font-size="12" font-weight="bold" fill="#E65100">전진</text>

      <text x="0" y="180" font-size="11" fill="#555">조향각 모두 0°, 6륜 동일 속도 (동일 동작)</text>
    </g>
  </g>

  <!-- ═══════════════════════════ -->
  <!-- 시나리오 2: 좌회전 -->
  <!-- ═══════════════════════════ -->
  <g transform="translate(50, 500)">
    <rect width="1300" height="290" fill="white" stroke="#BDBDBD" stroke-width="1" rx="8"/>
    <text x="20" y="28" font-size="16" font-weight="bold" fill="#212121">시나리오 ②  좌회전 (Left Turn) — 두 로버 다 가능</text>

    <!-- AAU 좌회전 -->
    <g transform="translate(80, 50)">
      <rect x="200" y="40" width="200" height="120" fill="#E0E0E0" stroke="#424242" stroke-width="2" rx="4"/>

      <!-- FL: 좌로 30도 각 -->
      <g transform="translate(194, 51) rotate(-30)">
        <rect x="-14" y="-6" width="28" height="12" fill="#2196F3" stroke="#0D47A1"/>
        <line x1="0" y1="6" x2="0" y2="22" stroke="#1565C0" stroke-width="2" marker-end="url(#arrow-wheel)"/>
      </g>
      <!-- FR: 좌로 20도 각 (Ackermann: 안쪽 휠이 더 큰 각) -->
      <g transform="translate(406, 51) rotate(-20)">
        <rect x="-14" y="-6" width="28" height="12" fill="#2196F3" stroke="#0D47A1"/>
        <line x1="0" y1="6" x2="0" y2="22" stroke="#1565C0" stroke-width="2" marker-end="url(#arrow-wheel)"/>
      </g>
      <!-- ML, MR: straight, 다른 속도 -->
      <rect x="170" y="94" width="28" height="12" fill="#9E9E9E" stroke="#424242"/>
      <line x1="184" y1="111" x2="184" y2="122" stroke="#1565C0" stroke-width="2" marker-end="url(#arrow-wheel)"/>
      <text x="160" y="116" font-size="9" fill="#0D47A1">slow</text>

      <rect x="402" y="94" width="28" height="12" fill="#9E9E9E" stroke="#424242"/>
      <line x1="416" y1="111" x2="416" y2="135" stroke="#1565C0" stroke-width="2.5" marker-end="url(#arrow-wheel)"/>
      <text x="435" y="125" font-size="9" fill="#0D47A1">fast</text>

      <!-- RL: 우로 30도 (rear opposite) -->
      <g transform="translate(194, 149) rotate(30)">
        <rect x="-14" y="-6" width="28" height="12" fill="#2196F3" stroke="#0D47A1"/>
        <line x1="0" y1="6" x2="0" y2="22" stroke="#1565C0" stroke-width="2" marker-end="url(#arrow-wheel)"/>
      </g>
      <!-- RR: 우로 20도 -->
      <g transform="translate(406, 149) rotate(20)">
        <rect x="-14" y="-6" width="28" height="12" fill="#2196F3" stroke="#0D47A1"/>
        <line x1="0" y1="6" x2="0" y2="22" stroke="#1565C0" stroke-width="2" marker-end="url(#arrow-wheel)"/>
      </g>

      <!-- 회전 중심 (left side) -->
      <circle cx="80" cy="100" r="5" fill="#C62828"/>
      <text x="50" y="90" font-size="10" fill="#C62828">회전중심</text>
      <!-- 회전 반경 점선 -->
      <line x1="80" y1="100" x2="200" y2="100" stroke="#C62828" stroke-width="1" stroke-dasharray="3,3"/>
      <line x1="80" y1="100" x2="400" y2="100" stroke="#C62828" stroke-width="1" stroke-dasharray="3,3"/>
      <text x="280" y="92" font-size="9" fill="#C62828">R</text>

      <!-- Body curve motion -->
      <path d="M 300 160 Q 280 100 240 30" fill="none" stroke="#F57F17" stroke-width="4" marker-end="url(#arrow-motion)"/>

      <text x="0" y="200" font-size="11" fill="#555">조향: FL/FR/RL/RR이 Ackermann 수식으로 자동 계산 (안쪽 휠 큰 각)</text>
      <text x="0" y="218" font-size="11" fill="#555">속도: 안쪽 휠 느림, 바깥 휠 빠름 (자동 분배)</text>
      <text x="0" y="236" font-size="11" fill="#1565C0">▶ Action 차원: <tspan font-weight="bold">2D</tspan> [steer=-0.5, throttle=0.5]</text>
    </g>

    <line x1="650" y1="50" x2="650" y2="270" stroke="#BDBDBD" stroke-dasharray="3,3"/>

    <!-- NASA 좌회전 -->
    <g transform="translate(680, 50)">
      <rect x="200" y="40" width="200" height="120" fill="#FFE0B2" stroke="#BF360C" stroke-width="2" rx="4"/>

      <!-- 좌회전 시 동일 가능 (Ackermann-style) -->
      <g transform="translate(194, 51) rotate(-30)">
        <rect x="-14" y="-6" width="28" height="12" fill="#FF9800" stroke="#E65100"/>
        <line x1="0" y1="6" x2="0" y2="22" stroke="#1565C0" stroke-width="2" marker-end="url(#arrow-wheel)"/>
      </g>
      <g transform="translate(406, 51) rotate(-20)">
        <rect x="-14" y="-6" width="28" height="12" fill="#FF9800" stroke="#E65100"/>
        <line x1="0" y1="6" x2="0" y2="22" stroke="#1565C0" stroke-width="2" marker-end="url(#arrow-wheel)"/>
      </g>
      <rect x="170" y="94" width="28" height="12" fill="#9E9E9E" stroke="#424242"/>
      <line x1="184" y1="111" x2="184" y2="122" stroke="#1565C0" stroke-width="2" marker-end="url(#arrow-wheel)"/>
      <text x="160" y="116" font-size="9" fill="#0D47A1">slow</text>
      <rect x="402" y="94" width="28" height="12" fill="#9E9E9E" stroke="#424242"/>
      <line x1="416" y1="111" x2="416" y2="135" stroke="#1565C0" stroke-width="2.5" marker-end="url(#arrow-wheel)"/>
      <text x="435" y="125" font-size="9" fill="#0D47A1">fast</text>
      <g transform="translate(194, 149) rotate(30)">
        <rect x="-14" y="-6" width="28" height="12" fill="#FF9800" stroke="#E65100"/>
        <line x1="0" y1="6" x2="0" y2="22" stroke="#1565C0" stroke-width="2" marker-end="url(#arrow-wheel)"/>
      </g>
      <g transform="translate(406, 149) rotate(20)">
        <rect x="-14" y="-6" width="28" height="12" fill="#FF9800" stroke="#E65100"/>
        <line x1="0" y1="6" x2="0" y2="22" stroke="#1565C0" stroke-width="2" marker-end="url(#arrow-wheel)"/>
      </g>

      <circle cx="80" cy="100" r="5" fill="#C62828"/>
      <text x="50" y="90" font-size="10" fill="#C62828">회전중심</text>
      <line x1="80" y1="100" x2="400" y2="100" stroke="#C62828" stroke-width="1" stroke-dasharray="3,3"/>

      <path d="M 300 160 Q 280 100 240 30" fill="none" stroke="#F57F17" stroke-width="4" marker-end="url(#arrow-motion)"/>

      <text x="0" y="200" font-size="11" fill="#555">조향: 4개 휠 각각 독립 제어 (이 모드에서 Ackermann과 같이 설정 가능)</text>
      <text x="0" y="218" font-size="11" fill="#555">속도: 6개 휠 각각 독립 제어 (각자 정확한 속도 산출)</text>
      <text x="0" y="236" font-size="11" fill="#E65100">▶ Action 차원: <tspan font-weight="bold">10D</tspan> [θ_FL, θ_FR, θ_RL, θ_RR, v_FL...v_RR]</text>
    </g>
  </g>

  <!-- ═══════════════════════════ -->
  <!-- 시나리오 3: 제자리 회전 -->
  <!-- ═══════════════════════════ -->
  <g transform="translate(50, 810)">
    <rect width="1300" height="300" fill="white" stroke="#BDBDBD" stroke-width="1" rx="8"/>
    <text x="20" y="28" font-size="16" font-weight="bold" fill="#212121">시나리오 ③  제자리 회전 (Point Turn) — 두 로버 다 가능, 메커니즘 차이</text>

    <!-- AAU 제자리 회전 -->
    <g transform="translate(80, 50)">
      <rect x="200" y="40" width="200" height="120" fill="#E0E0E0" stroke="#424242" stroke-width="2" rx="4"/>

      <!-- FL: -45도 -->
      <g transform="translate(194, 51) rotate(-45)">
        <rect x="-14" y="-6" width="28" height="12" fill="#2196F3" stroke="#0D47A1"/>
        <line x1="0" y1="6" x2="0" y2="22" stroke="#C62828" stroke-width="2" marker-end="url(#arrow-wheel-rev)"/>
      </g>
      <!-- FR: +45도 -->
      <g transform="translate(406, 51) rotate(45)">
        <rect x="-14" y="-6" width="28" height="12" fill="#2196F3" stroke="#0D47A1"/>
        <line x1="0" y1="6" x2="0" y2="22" stroke="#1565C0" stroke-width="2" marker-end="url(#arrow-wheel)"/>
      </g>
      <!-- ML: 역회전 -->
      <rect x="170" y="94" width="28" height="12" fill="#9E9E9E" stroke="#424242"/>
      <line x1="184" y1="111" x2="184" y2="127" stroke="#C62828" stroke-width="2" marker-end="url(#arrow-wheel-rev)"/>
      <text x="155" y="120" font-size="9" fill="#C62828">REV</text>
      <!-- MR: 정회전 -->
      <rect x="402" y="94" width="28" height="12" fill="#9E9E9E" stroke="#424242"/>
      <line x1="416" y1="111" x2="416" y2="127" stroke="#1565C0" stroke-width="2" marker-end="url(#arrow-wheel)"/>
      <text x="435" y="120" font-size="9" fill="#1565C0">FWD</text>
      <!-- RL: +45도 (정반대) -->
      <g transform="translate(194, 149) rotate(45)">
        <rect x="-14" y="-6" width="28" height="12" fill="#2196F3" stroke="#0D47A1"/>
        <line x1="0" y1="6" x2="0" y2="22" stroke="#C62828" stroke-width="2" marker-end="url(#arrow-wheel-rev)"/>
      </g>
      <!-- RR: -45도 -->
      <g transform="translate(406, 149) rotate(-45)">
        <rect x="-14" y="-6" width="28" height="12" fill="#2196F3" stroke="#0D47A1"/>
        <line x1="0" y1="6" x2="0" y2="22" stroke="#1565C0" stroke-width="2" marker-end="url(#arrow-wheel)"/>
      </g>

      <!-- 회전 화살표 (제자리) -->
      <circle cx="300" cy="100" r="5" fill="#C62828"/>
      <path d="M 300 70 A 30 30 0 1 1 270 100" fill="none" stroke="#F57F17" stroke-width="3" marker-end="url(#arrow-motion)"/>
      <text x="310" y="76" font-size="11" font-weight="bold" fill="#E65100">제자리 회전</text>

      <text x="0" y="200" font-size="11" fill="#555">조향: 모든 휠 ±45° 고정 (특수 모드)</text>
      <text x="0" y="218" font-size="11" fill="#555">속도: 좌측 휠 역회전, 우측 휠 정회전</text>
      <text x="0" y="236" font-size="11" fill="#1565C0">▶ <tspan font-weight="bold">point-turn 모드</tspan>: Ackermann 코드가 자동 전환</text>
      <text x="0" y="254" font-size="11" fill="#666">단점: 휠 비틀림이 부자연스러움, 마찰 큼</text>
    </g>

    <line x1="650" y1="50" x2="650" y2="290" stroke="#BDBDBD" stroke-dasharray="3,3"/>

    <!-- NASA 제자리 회전 -->
    <g transform="translate(680, 50)">
      <rect x="200" y="40" width="200" height="120" fill="#FFE0B2" stroke="#BF360C" stroke-width="2" rx="4"/>

      <!-- FL: 차체 중심 향한 접선 (대략 -50도) -->
      <g transform="translate(194, 51) rotate(-50)">
        <rect x="-14" y="-6" width="28" height="12" fill="#FF9800" stroke="#E65100"/>
        <line x1="0" y1="6" x2="0" y2="22" stroke="#1565C0" stroke-width="2" marker-end="url(#arrow-wheel)"/>
      </g>
      <!-- FR: +50도 -->
      <g transform="translate(406, 51) rotate(50)">
        <rect x="-14" y="-6" width="28" height="12" fill="#FF9800" stroke="#E65100"/>
        <line x1="0" y1="6" x2="0" y2="22" stroke="#1565C0" stroke-width="2" marker-end="url(#arrow-wheel)"/>
      </g>
      <!-- ML: 회전 접선 방향 (역방향) -->
      <rect x="170" y="94" width="28" height="12" fill="#9E9E9E" stroke="#424242"/>
      <line x1="184" y1="111" x2="184" y2="127" stroke="#C62828" stroke-width="2" marker-end="url(#arrow-wheel-rev)"/>
      <!-- MR: 회전 접선 (정방향) -->
      <rect x="402" y="94" width="28" height="12" fill="#9E9E9E" stroke="#424242"/>
      <line x1="416" y1="111" x2="416" y2="127" stroke="#1565C0" stroke-width="2" marker-end="url(#arrow-wheel)"/>
      <!-- RL: +50도 -->
      <g transform="translate(194, 149) rotate(50)">
        <rect x="-14" y="-6" width="28" height="12" fill="#FF9800" stroke="#E65100"/>
        <line x1="0" y1="6" x2="0" y2="22" stroke="#C62828" stroke-width="2" marker-end="url(#arrow-wheel-rev)"/>
      </g>
      <!-- RR: -50도 -->
      <g transform="translate(406, 149) rotate(-50)">
        <rect x="-14" y="-6" width="28" height="12" fill="#FF9800" stroke="#E65100"/>
        <line x1="0" y1="6" x2="0" y2="22" stroke="#1565C0" stroke-width="2" marker-end="url(#arrow-wheel)"/>
      </g>

      <circle cx="300" cy="100" r="5" fill="#C62828"/>
      <path d="M 300 70 A 30 30 0 1 1 270 100" fill="none" stroke="#F57F17" stroke-width="3" marker-end="url(#arrow-motion)"/>
      <text x="310" y="76" font-size="11" font-weight="bold" fill="#E65100">제자리 회전</text>

      <text x="0" y="200" font-size="11" fill="#555">조향: 각 휠이 차체 중심 향한 <tspan font-weight="bold">접선 방향</tspan>으로 회전</text>
      <text x="0" y="218" font-size="11" fill="#555">속도: 각 휠 동일 각속도 × 반경 (정확한 회전)</text>
      <text x="0" y="236" font-size="11" fill="#E65100">▶ 모든 동작이 <tspan font-weight="bold">기하학적으로 일관</tspan>됨</text>
      <text x="0" y="254" font-size="11" fill="#666">장점: 매끄러운 회전, 휠 비틀림 최소</text>
    </g>
  </g>

  <!-- ═══════════════════════════ -->
  <!-- 시나리오 4: 게걸음 (Crab Walk) -->
  <!-- ═══════════════════════════ -->
  <g transform="translate(50, 1130)">
    <rect width="1300" height="300" fill="white" stroke="#BDBDBD" stroke-width="1" rx="8"/>
    <text x="20" y="28" font-size="16" font-weight="bold" fill="#212121">시나리오 ④  게걸음 (Crab Walk) — NASA만 가능 ⭐</text>

    <!-- AAU: 불가능 -->
    <g transform="translate(80, 50)">
      <rect x="200" y="40" width="200" height="120" fill="#E0E0E0" stroke="#424242" stroke-width="2" rx="4" opacity="0.5"/>

      <rect x="180" y="45" width="28" height="12" fill="#2196F3" stroke="#0D47A1" opacity="0.5"/>
      <rect x="392" y="45" width="28" height="12" fill="#2196F3" stroke="#0D47A1" opacity="0.5"/>
      <rect x="170" y="94" width="28" height="12" fill="#9E9E9E" stroke="#424242" opacity="0.5"/>
      <rect x="402" y="94" width="28" height="12" fill="#9E9E9E" stroke="#424242" opacity="0.5"/>
      <rect x="180" y="143" width="28" height="12" fill="#2196F3" stroke="#0D47A1" opacity="0.5"/>
      <rect x="392" y="143" width="28" height="12" fill="#2196F3" stroke="#0D47A1" opacity="0.5"/>

      <!-- X 표시 -->
      <text x="300" y="115" font-size="80" text-anchor="middle" fill="#C62828" opacity="0.7">✗</text>

      <text x="0" y="200" font-size="11" fill="#555">Ackermann 수식상 4개 조향이 <tspan font-weight="bold">기하학적으로 묶여있어</tspan></text>
      <text x="0" y="218" font-size="11" fill="#555">"4개 휠 모두 같은 방향"으로 만들 수 없음.</text>
      <text x="0" y="236" font-size="11" fill="#C62828">▶ <tspan font-weight="bold">불가능 — 우회로 돌아가야 함</tspan></text>
      <text x="0" y="254" font-size="11" fill="#666">좁은 공간 진입 시 큰 단점</text>
    </g>

    <line x1="650" y1="50" x2="650" y2="290" stroke="#BDBDBD" stroke-dasharray="3,3"/>

    <!-- NASA Crab walk -->
    <g transform="translate(680, 50)">
      <rect x="200" y="40" width="200" height="120" fill="#FFE0B2" stroke="#BF360C" stroke-width="2" rx="4"/>

      <!-- 모든 조향 휠 동일 방향 (예: -45도) -->
      <g transform="translate(194, 51) rotate(-45)">
        <rect x="-14" y="-6" width="28" height="12" fill="#FF9800" stroke="#E65100"/>
        <line x1="0" y1="6" x2="0" y2="22" stroke="#1565C0" stroke-width="2" marker-end="url(#arrow-wheel)"/>
      </g>
      <g transform="translate(406, 51) rotate(-45)">
        <rect x="-14" y="-6" width="28" height="12" fill="#FF9800" stroke="#E65100"/>
        <line x1="0" y1="6" x2="0" y2="22" stroke="#1565C0" stroke-width="2" marker-end="url(#arrow-wheel)"/>
      </g>
      <!-- ML, MR: 같은 방향으로 회전 (skid 사용) -->
      <rect x="170" y="94" width="28" height="12" fill="#9E9E9E" stroke="#424242"/>
      <text x="155" y="118" font-size="9" fill="#666">skid</text>
      <rect x="402" y="94" width="28" height="12" fill="#9E9E9E" stroke="#424242"/>
      <text x="435" y="118" font-size="9" fill="#666">skid</text>
      <!-- RL, RR: 같은 -45도 -->
      <g transform="translate(194, 149) rotate(-45)">
        <rect x="-14" y="-6" width="28" height="12" fill="#FF9800" stroke="#E65100"/>
        <line x1="0" y1="6" x2="0" y2="22" stroke="#1565C0" stroke-width="2" marker-end="url(#arrow-wheel)"/>
      </g>
      <g transform="translate(406, 149) rotate(-45)">
        <rect x="-14" y="-6" width="28" height="12" fill="#FF9800" stroke="#E65100"/>
        <line x1="0" y1="6" x2="0" y2="22" stroke="#1565C0" stroke-width="2" marker-end="url(#arrow-wheel)"/>
      </g>

      <!-- 대각선 이동 화살표 -->
      <line x1="300" y1="115" x2="200" y2="50" stroke="#F57F17" stroke-width="4" marker-end="url(#arrow-motion)"/>
      <text x="190" y="80" font-size="12" font-weight="bold" fill="#E65100">대각선 이동</text>

      <text x="0" y="200" font-size="11" fill="#555">4개 조향 휠 <tspan font-weight="bold">동일 각도</tspan> + 모든 휠 동일 속도</text>
      <text x="0" y="218" font-size="11" fill="#555">→ 차체가 <tspan font-weight="bold">평행 이동</tspan> (옆걸음 가능)</text>
      <text x="0" y="236" font-size="11" fill="#E65100">▶ <tspan font-weight="bold">실 화성 임무에 자주 사용</tspan></text>
      <text x="0" y="254" font-size="11" fill="#666">암석 옆을 좁게 통과, 시료 채취 위치 미세 조정</text>
    </g>
  </g>

  <!-- ═══════════════════════════ -->
  <!-- 요약 비교표 -->
  <!-- ═══════════════════════════ -->
  <g transform="translate(50, 1450)">
    <rect width="1300" height="370" fill="#F5F5F5" stroke="#666" stroke-width="2" rx="8"/>
    <text x="650" y="35" font-size="18" font-weight="bold" text-anchor="middle" fill="#212121">📊 종합 비교</text>

    <!-- 표 헤더 -->
    <g transform="translate(30, 60)">
      <rect width="380" height="35" fill="#424242"/>
      <text x="190" y="23" font-size="13" font-weight="bold" text-anchor="middle" fill="white">항목</text>
      <rect x="380" width="430" height="35" fill="#2E7D32"/>
      <text x="595" y="23" font-size="13" font-weight="bold" text-anchor="middle" fill="white">AAU (Ackermann) — 클론</text>
      <rect x="810" width="430" height="35" fill="#E65100"/>
      <text x="1025" y="23" font-size="13" font-weight="bold" text-anchor="middle" fill="white">NASA (Independent) — 실 모델</text>
    </g>

    <!-- 행들 -->
    <g transform="translate(30, 95)" font-size="12">
      <!-- 행 1 -->
      <rect width="380" height="32" fill="white"/>
      <text x="15" y="20" font-weight="bold">조향 제어 방식</text>
      <rect x="380" width="430" height="32" fill="#E8F5E9"/>
      <text x="395" y="20">Ackermann 기하 (4개 휠 coupled)</text>
      <rect x="810" width="430" height="32" fill="#FFF3E0"/>
      <text x="825" y="20">각 휠 독립 제어 (decoupled)</text>

      <!-- 행 2 -->
      <rect y="32" width="380" height="32" fill="#FAFAFA"/>
      <text x="15" y="52" font-weight="bold">Action 차원 (RL)</text>
      <rect x="380" y="32" width="430" height="32" fill="#E8F5E9"/>
      <text x="395" y="52">2D: [steer, throttle]</text>
      <rect x="810" y="32" width="430" height="32" fill="#FFF3E0"/>
      <text x="825" y="52">10D: 각 휠 각도 + 속도</text>

      <!-- 행 3 -->
      <rect y="64" width="380" height="32" fill="white"/>
      <text x="15" y="84" font-weight="bold">직진</text>
      <rect x="380" y="64" width="430" height="32" fill="#E8F5E9"/>
      <text x="395" y="84">✓ 가능</text>
      <rect x="810" y="64" width="430" height="32" fill="#FFF3E0"/>
      <text x="825" y="84">✓ 가능</text>

      <!-- 행 4 -->
      <rect y="96" width="380" height="32" fill="#FAFAFA"/>
      <text x="15" y="116" font-weight="bold">일반 회전</text>
      <rect x="380" y="96" width="430" height="32" fill="#E8F5E9"/>
      <text x="395" y="116">✓ 가능 (수식 자동 계산)</text>
      <rect x="810" y="96" width="430" height="32" fill="#FFF3E0"/>
      <text x="825" y="116">✓ 가능 (Ackermann과 동일 결과 가능)</text>

      <!-- 행 5 -->
      <rect y="128" width="380" height="32" fill="white"/>
      <text x="15" y="148" font-weight="bold">제자리 회전 (Point Turn)</text>
      <rect x="380" y="128" width="430" height="32" fill="#E8F5E9"/>
      <text x="395" y="148">✓ 가능 (특수 모드 자동 전환, 부자연)</text>
      <rect x="810" y="128" width="430" height="32" fill="#FFF3E0"/>
      <text x="825" y="148">✓ 가능 (자연스러운 접선 회전)</text>

      <!-- 행 6 -->
      <rect y="160" width="380" height="32" fill="#FAFAFA"/>
      <text x="15" y="180" font-weight="bold">게걸음 (Crab Walk)</text>
      <rect x="380" y="160" width="430" height="32" fill="#FFEBEE"/>
      <text x="395" y="180" fill="#C62828" font-weight="bold">✗ 불가능</text>
      <rect x="810" y="160" width="430" height="32" fill="#FFF3E0"/>
      <text x="825" y="180" fill="#E65100" font-weight="bold">✓ 가능 (좁은 공간 통과 시 핵심)</text>

      <!-- 행 7 -->
      <rect y="192" width="380" height="32" fill="white"/>
      <text x="15" y="212" font-weight="bold">호 그리기 (Arc steering)</text>
      <rect x="380" y="192" width="430" height="32" fill="#FFF8E1"/>
      <text x="395" y="212" fill="#F57C00">△ 제한적 (Ackermann 반경)</text>
      <rect x="810" y="192" width="430" height="32" fill="#FFF3E0"/>
      <text x="825" y="212">✓ 자유롭게 가능</text>

      <!-- 행 8 -->
      <rect y="224" width="380" height="32" fill="#FAFAFA"/>
      <text x="15" y="244" font-weight="bold">RL 학습 부담</text>
      <rect x="380" y="224" width="430" height="32" fill="#E8F5E9"/>
      <text x="395" y="244">낮음 (2D action 학습 쉬움)</text>
      <rect x="810" y="224" width="430" height="32" fill="#FFEBEE"/>
      <text x="825" y="244" fill="#C62828">높음 (10D action 학습 어려움)</text>
    </g>
  </g>

  <!-- 하단 결론 -->
  <text x="700" y="1830" font-size="13" font-weight="bold" text-anchor="middle" fill="#444">
    💡 8일 프로젝트엔 AAU(Ackermann)가 최적 (학습 부담↓), 후행 마일스톤에 NASA-style 마이그레이션 + 재학습
  </text>

</svg>
